<?xml version="1.0" encoding="UTF-8"?>
<svg id="Layer_2" data-name="Layer 2" xmlns="http://www.w3.org/2000/svg" viewBox="0 0 204.29 204.26">
  <g id="Layer_1-2" data-name="Layer 1">
    <g id="IA7BuV.tif">
      <path d="M102.47,0C46.28-.15,.42,45.2,0,101.31c-.42,56.6,45.33,102.82,101.89,102.94,56.32,.12,102.03-45.1,102.39-101.31C204.65,46.14,159.17,.15,102.47,0Zm-.54,188.22c-47.68-.1-86.24-39.06-85.89-86.77,.35-47.3,39.01-85.53,86.37-85.4,47.79,.13,86.13,38.89,85.82,86.78-.31,47.38-38.83,85.5-86.31,85.4Zm54.41-54.01h-15.06V65.63h15.06v68.57Zm-61.27-68.57l34.29,34.29-34.29,34.29V65.63Zm-44.24,0l34.29,34.29-34.29,34.29V65.63Z"/>
    </g>
  </g>
</svg>