<?xml version="1.0" encoding="utf-8"?>
<!-- Generator: Adobe Illustrator 25.4.1, SVG Export Plug-In . SVG Version: 6.00 Build 0)  -->
<svg version="1.1" id="Capa_1" xmlns="http://www.w3.org/2000/svg" xmlns:xlink="http://www.w3.org/1999/xlink" x="0px" y="0px"
	 viewBox="0 0 252.6 266.4" style="enable-background:new 0 0 252.6 266.4;" xml:space="preserve">
<g id="Capa_2_00000032616635569314845070000006981513286423960974_">
	<g id="music_note">
		<g>
			<path d="M129.4-0.1c2.9,1.2,6,2,8.5,4c5.4,4.2,8.5,9.7,8.5,16.4c0.1,35.2,0.1,70.4,0.1,105.6c0,0.3-0.1,0.5-0.2,0.8
				c-13.9-6.3-27.7-6.2-41.8,0.4v-2.5c0-34,0-68,0-101.9c0-11.9,5.6-19.2,17.1-22.4c0.2-0.1,0.3-0.2,0.4-0.3H129.4z"/>
			<path d="M212.7,266.5c-2.1-0.9-4.3-1.2-6.2-2.3c-7.1-4-11.2-10.2-11.2-18.3c-0.2-31.7-0.1-63.5-0.1-95.6
				c13.9,6.5,27.7,6.7,41.7,0.3c0.6,0.8,0.3,1.6,0.3,2.3c0,30.5-0.1,61,0,91.6c0,12.1-8.3,20-16.6,21.6c-0.2,0-0.4,0.3-0.5,0.5
				L212.7,266.5z"/>
			<path d="M32.1,266.5c-3.1-1.2-6.3-2.2-9-4.3c-5.1-4.1-8.1-9.4-8.1-15.9c-0.1-31.7-0.1-63.3-0.1-95c0-0.3,0.1-0.6,0.1-1
				c3.5,1.5,7,3,10.7,3.8c9.8,2.2,20,1.3,29.2-2.8c1.8-0.8,1.9-0.3,1.9,1.3c0,30.8,0.1,61.6-0.1,92.4c0,10.9-6.3,18.5-16.8,21.1
				c-0.2,0.1-0.5,0.2-0.6,0.4L32.1,266.5z"/>
			<path d="M0.9,104.1C2,100.6,2.7,97,4.3,93.6C11,80.2,25,72,40.7,74.1C56.2,76,68.5,87.9,71,103.3c3.8,22.6-15,43-38,40.9
				c-16.3-1.5-28.9-13.1-31.8-29.4c-0.1-0.3-0.3-0.6-0.5-0.9V104.1z"/>
			<path d="M220-0.1c0.9,0.9,2.2,0.8,3.3,1.2c8,3,13.7,10.7,13.8,19.3c0.1,15.6,0,31.2,0,47.1c-3.1-1-5.9-2.4-9-3.2
				c-10.5-2.7-20.8-1.9-30.6,2.6c-2.4,1.1-2.4,0.2-2.4-1.7c0.1-14.4,0-28.8,0-43.2c0-11,5.9-18.7,16.5-21.6c0.2-0.1,0.4-0.3,0.5-0.5
				L220-0.1z"/>
			<path d="M39.4-0.1c2.4,0.9,4.9,1.5,7.1,2.9c6.8,4.3,10.3,10.4,10.3,18.4c0.1,15.3,0,30.5,0,45.8c0,0.2-0.1,0.3-0.2,0.4
				c-16.9-6.3-25.5-6-41.8,0.3V65c0-14.5,0-28.9,0-43.4c0-10.7,6.1-18.5,16.6-21.2c0.2-0.1,0.4-0.3,0.6-0.5H39.4z"/>
			<path d="M121.6,266.5c-1.9-0.8-3.9-1.4-5.6-2.3c-7.5-4.1-11.3-10.6-11.4-19c-0.1-11.2,0-22.4,0-33.6c0-1.1-0.4-2.4,1.7-1.5
				c13.1,5.9,26.3,5.9,39.4-0.1c0.3-0.1,0.6-0.1,0.9-0.1c0,10.5,0,20.8,0,31.2c0,3.3,0.2,6.6-0.7,9.8c-2.3,7.8-7.4,12.9-15.3,15
				c-0.4,0.1-0.9,0-1,0.5L121.6,266.5z"/>
			<path d="M125.7,203.6c-19.5,0-35.3-15.8-35.3-35.3c0-0.1,0-0.2,0-0.3c0.1-19.3,16.1-35,35.4-34.9c19.5,0,35.3,15.8,35.3,35.2
				c0,0.1,0,0.2,0,0.4C161.1,188,145.2,203.7,125.7,203.6z"/>
			<path d="M216.5,73.8c19.5,0,35.2,15.8,35.2,35.2c0,0.1,0,0.1,0,0.2c0,19.4-16.2,35.4-35.5,35.3c-19.6-0.1-35.4-16.1-35.2-35.8
				c0,0,0,0,0,0C181.1,89.4,197,73.8,216.5,73.8z"/>
		</g>
	</g>
</g>
</svg>
