<?xml version="1.0" encoding="utf-8"?>
<!-- Generator: Adobe Illustrator 25.4.1, SVG Export Plug-In . SVG Version: 6.00 Build 0)  -->
<svg version="1.1" id="Capa_1" xmlns="http://www.w3.org/2000/svg" xmlns:xlink="http://www.w3.org/1999/xlink" x="0px" y="0px"
	 viewBox="0 0 252.6 266.4" style="enable-background:new 0 0 252.6 266.4;" xml:space="preserve">
<g id="Capa_2_00000183227698143553669010000010125759603587777958_">
	<g id="music_note">
		<path d="M112.8,106c6.2,0,10.3-6.6,7.6-12.2c-1.7-3.5-4.5-5.1-8.4-5H27c-0.4,0-0.7,0-1.1,0c-5.3,0.3-9.2,5.6-7.9,10.7
			c1,4,4.2,6.6,8.3,6.6c14.3,0,28.6,0,43,0C83.8,106.1,98.3,106.1,112.8,106z M99.5,71.6c4.5,0,9.1,0.1,13.6-0.1
			c3.5-0.1,6.6-2.4,7.7-5.8c1.9-5.7-2.3-11.5-8.5-11.5c-19.6,0-39.2,0-58.8,0c-8.9,0-17.9,0-26.8,0c-6,0-10.2,5.7-8.4,11.3
			c1.2,3.8,4.5,6,9,6c14.1,0,28.2,0,42.3,0H99.5z M52.3,123.3c-8.3,0-16.6,0-24.9,0c-1.1-0.1-2.1,0-3.2,0.3c-4.3,1.2-7,5.1-6.4,9.6
			c0.6,4.3,4.3,7.5,8.6,7.5c5,0,10,0,15,0c12.2,0,24.4,0,36.6,0c4.8,0,8.6-3.8,8.7-8.5c0-0.6-0.1-1.3-0.2-1.9
			c-0.8-3.9-4.2-6.7-8.2-6.8C69.7,123.3,61,123.3,52.3,123.3L52.3,123.3z M121.5,265.1c-3.3-1.3-6.8-1.4-10.1-2.5
			c-23.9-8.3-38.1-24.7-41.4-49.7c-4.2-32.2,19.1-61.8,51.3-65.8c11.8-1.5,23.9,0.7,34.4,6.3c2.5,1.3,2.5,1.3,2.5-1.6
			c0-40.6,0-81.2,0-121.7c0-9.7,3.1-18,10.6-24.4c5.1-4.5,11.7-7,18.5-7c10.3,0,20.6-0.1,30.9,0C233.5-1.1,246,11.2,247,26.9
			c0.9,14.8-10.3,28.5-25,30.6c-7.1,1-14.2,0.3-21.3,0.5c-3.6,0.1-7.1,0.1-10.7,0c-1.8-0.1-2.3,0.5-2.1,2.2c0,0.5,0,1,0,1.6
			c0,47,0.2,94-0.1,141c-0.1,23.2-9.7,41.6-29.4,54.3c-6.8,4.3-14.4,6.9-22.4,7.7c-0.4,0-0.9,0-1.1,0.5h-9.4c-1-0.4-2.1-0.4-3.1,0
			L121.5,265.1z"/>
	</g>
</g>
</svg>
