<?xml version="1.0" encoding="UTF-8"?>
<svg id="Layer_2" data-name="Layer 2" xmlns="http://www.w3.org/2000/svg" viewBox="0 0 455.55 498.87">
  <g id="Layer_1-2" data-name="Layer 1">
    <g id="WLt5JS.tif">
      <path d="M351.71,498.87c-.64-3.44-3.81-3.07-6.08-3.77-38.66-11.94-62.26-44.52-60.67-83.92,1.51-37.43,28.14-69.12,66.15-77.44,17.28-3.79,34.52-1.88,50.7,5.57,2.44-3.02,1.43-6.04,1.43-8.8,.07-59.05-.1-118.1,.24-177.16,.04-7.67-1.73-10.45-9.78-12.02-71.8-13.99-143.48-28.6-215.2-42.98-3.59-.72-7.27-1.01-11.68-1.61,0,3.18,0,6.09,0,9.01-.01,87.46-.09,174.91-.02,262.37,.04,45.12-37.06,82.07-82.82,82.21C36.94,450.47,.05,414.61,0,368.69c-.07-58.62,55.56-97.95,111.18-78.63,2.07,.72,4.24,1.13,7.33,1.93,0-4.53,0-8.54,0-12.55,0-75.66-.05-151.32,.03-226.98,.03-26.11,12.5-42.84,36.8-49.96,4.66-4.91,10.54-.84,15.71-2.1,14.17,.21,27.99,2.95,41.75,5.86,66.05,13.93,132.38,26.47,198.58,39.63,27.24,5.42,43.91,24.38,43.96,51.84,.21,105.9,.41,211.8-.12,317.7-.14,28.99-13.15,52.37-36.3,70.33-11.41,8.85-24.8,10.78-38.25,13.12h-28.96Z"/>
    </g>
  </g>
</svg>