<?xml version="1.0" encoding="utf-8"?>
<!-- Generator: Adobe Illustrator 26.4.1, SVG Export Plug-In . SVG Version: 6.00 Build 0)  -->
<svg version="1.1" id="Capa_1" xmlns="http://www.w3.org/2000/svg" xmlns:xlink="http://www.w3.org/1999/xlink" x="0px" y="0px"
	 viewBox="0 0 252.6 266.4" style="enable-background:new 0 0 252.6 266.4;" xml:space="preserve">
<style type="text/css">
	.st0{fill:#1D1D1B;stroke:#1D1D1B;stroke-width:12;stroke-miterlimit:10;}
</style>
<path class="st0" d="M241.9,116.3c-1.7-11.9-5.2-23.5-10.6-34.3c-7.4-15.1-17.9-28.5-31-39.2C184.8,30,167,21.9,147.2,18.2
	c-4.2-0.8-8.5-0.7-12.8-1.2h-17.3c-2.6,0.5-5.2,0.2-7.8,0.6C97.5,19.3,86,22.8,75.2,28c-15,7.3-28.3,17.7-38.9,30.6
	C23.2,74.4,15,92.4,11.2,112.5c-0.7,3.9-0.6,7.8-1.2,11.7v18.2c0.5,2.7,0.3,5.4,0.6,8.1c1,7.3,2.7,14.4,5.2,21.3
	c5.7,16.4,15,31.4,27.2,43.7c6.5,6.6,13.9,12.4,21.8,17.3c12.5,7.7,26.4,13,40.9,15.6c3.8,0.7,7.6,0.6,11.4,1.1h17.3
	c3-0.5,6-0.2,9-0.6c7.9-1.1,15.6-3.1,23-5.8c15.9-5.7,29.8-14.7,41.8-26.4c6.6-6.5,12.5-13.8,17.3-21.7c7.7-12.6,13.1-26.5,15.7-41
	c0.7-3.8,0.6-7.6,1.1-11.4v-17.7C242,121.8,242.3,119,241.9,116.3z M126.2,242.2c-60.9-0.6-108.9-49-108.8-109.2
	c0.1-60.7,48.8-108.7,109-108.6c60.8,0.1,108.9,48.8,108.8,109.1C235,194.1,186.4,241.8,126.2,242.2z M126.4,91.4
	c-1.7-0.7-2.8-0.8-4.4,0.5c-15.8,12.5-31.6,25-47.5,37.4c-1.9,1.5-2,6.4,0,7.9c15.4,12.1,30.9,24.2,46.2,36.5c2.5,2,4.3,2.5,7.1,0.8
	c1.5-1,2.2-1.8,2.2-3.6c-0.1-12.5,0-24.9,0-37.4c0-12.1-0.1-24.2,0.1-36.3C130.1,94,129.2,92.5,126.4,91.4z M122.6,165.5
	c-2.9-2.3-5.7-4.4-8.4-6.6c-10.4-8.2-20.9-16.4-31.3-24.6c-0.9-0.7-1.6-1.1-0.2-2.1c13.3-10.3,26.5-20.8,40-31.4L122.6,165.5z
	 M202.5,133.3c0-12.8,0-25.6,0-38.3c0-1.3-0.2-2.1-1.6-2.6c-0.8-0.2-1.6-0.6-2.2-1c-1.5-1.1-2.6-0.7-4,0.4
	c-15.9,12.6-31.8,25.1-47.7,37.5c-1.9,1.5-1.9,6.4,0,7.9c15.4,12.1,30.8,24.1,46.1,36.3c2.6,2.1,4.6,2.6,7.5,0.7
	c1.3-0.8,1.9-1.4,1.9-3C202.5,158.5,202.5,145.9,202.5,133.3z M195.2,165.5c-6.4-5-12.6-9.9-18.8-14.8c-6.9-5.4-13.9-10.9-20.8-16.3
	c-0.7-0.6-1.8-1-0.4-2.1c13.2-10.3,26.4-20.6,39.6-31c0.1-0.1,0.2,0,0.5-0.1L195.2,165.5z M57.3,105.7c0-5.2,0-5.2-5.2-5.3
	c-1.7,0-2.1,0.4-2.1,2.1c0.1,10.1,0,20.3,0,30.4v27.9c0,5,0,4.9,5,5.1c1.9,0.1,2.3-0.5,2.3-2.3C57.2,144.3,57.3,125,57.3,105.7z"/>
</svg>
