<?xml version="1.0" encoding="utf-8"?>
<!-- Generator: Adobe Illustrator 25.4.1, SVG Export Plug-In . SVG Version: 6.00 Build 0)  -->
<svg version="1.1" id="Capa_1" xmlns="http://www.w3.org/2000/svg" xmlns:xlink="http://www.w3.org/1999/xlink" x="0px" y="0px"
	 viewBox="0 0 252.6 266.4" style="enable-background:new 0 0 252.6 266.4;" xml:space="preserve">
<style type="text/css">
	.st0{fill:#010101;}
</style>
<g id="Capa_2_00000031900829511038091250000007327667881225526940_">
	<g id="music_note">
		<path id="trace" class="st0" d="M252.5,14.5c-0.3-7.4-4.8-12.7-11.8-14.2c-3.5-0.8-6.7,0.8-9.9,1.6C189.4,12.2,148,22.7,106.6,33
			c-13,3.2-25.8,7.1-39,9.3c-2.7,0.5-5.1,1.8-7.1,3.7c-3.6,3.4-4.4,7.6-4.4,12.3c0,41,0.1,82.1,0.1,123.1c0,2.6-0.4,3.2-3.1,2.4
			c-5.8-1.7-11.8-1.8-17.8-0.8c-22.6,3.6-38.6,25.9-34.6,48.3c4.3,24.1,27,39.3,50.9,34.2c18.2-3.9,32.3-20.3,32.5-38.9
			c0.3-28.6,0.2-57.2,0.1-85.8c0-3.1,0.9-4.1,3.9-4.9c27.7-6.8,55.4-13.7,83-20.7c17-4.3,34-8.5,51.1-12.8c1.2-0.3,2.2-0.7,2.2,1.4
			c-0.1,12.8,0,25.7,0,38.8c-3.5-1.2-7.2-2-10.9-2.3c-23.9-1.7-44.4,16.7-45.1,40.6c-0.4,16.3,6.4,29,20.3,37.4
			c13.9,8.4,28.6,8.6,42.7,0.4c14.7-8.4,21.2-21.8,21.2-38.5c0-54,0-107.9,0-161.9C252.5,17,252.6,15.7,252.5,14.5z M221.6,74.5
			c-25.3,6.3-50.6,12.6-75.9,18.9c-19.5,4.8-38.9,9.7-58.4,14.7c-2.5,0.6-3.2,0.3-3.2-2.4c0.1-12,0.1-24.1,0-36.1
			c0-2.2,0.8-2.9,2.7-3.3c39.7-9.8,79.3-19.7,118.9-29.6c6.1-1.5,12.2-3.1,18.6-4.7c0,13.6-0.1,26.8,0.1,40
			C224.5,74.3,222.9,74.2,221.6,74.5z"/>
	</g>
</g>
</svg>
