<?xml version="1.0" encoding="utf-8"?>
<!-- Generator: Adobe Illustrator 25.4.1, SVG Export Plug-In . SVG Version: 6.00 Build 0)  -->
<svg version="1.1" id="Capa_1" xmlns="http://www.w3.org/2000/svg" xmlns:xlink="http://www.w3.org/1999/xlink" x="0px" y="0px"
	 viewBox="0 0 252.6 266.4" style="enable-background:new 0 0 252.6 266.4;" xml:space="preserve">
<style type="text/css">
	.st0{fill:#1D1D1B;stroke:#1D1D1B;stroke-width:15;stroke-miterlimit:10;}
	.st1{fill:#1D1D1B;stroke:#1D1D1B;stroke-width:9;stroke-miterlimit:10;}
</style>
<g id="Capa_2_00000046321385637931415610000008913157453103032212_">
	<g id="music_note">
		<g>
			<path class="st0" d="M242,115.5c-3.6-23.2-13.1-43.6-28.8-60.9c-18.7-20.6-41.8-33.1-69.4-37.4c-3.1-0.5-6.3-0.4-9.3-1.3h-17.4
				c-2.6,0.5-5.3,0.2-7.9,0.6c-12,1.7-23.7,5.3-34.6,10.7c-15.1,7.3-28.4,17.8-39,30.8C22.5,73.8,14.1,92,10.4,112.3
				c-0.7,3.9-0.7,7.9-1.2,11.8v18.3c0.5,2.7,0.3,5.4,0.6,8.1c1,7.3,2.8,14.6,5.2,21.5c5.7,16.4,14.9,31.4,27.1,43.8
				c6.7,6.8,14.1,12.8,22.3,17.8c12.6,7.7,26.6,13.1,41.2,15.7c3.8,0.7,7.7,0.6,11.5,1.2h17.4c0.2-0.5,0.6-0.4,0.9-0.4
				c16-1,31.1-5.6,45.4-13C224.9,214.1,249.7,164.7,242,115.5z M126.2,243.2C65,242.7,16.5,193.9,16.6,133
				c0.1-61.1,49-109.7,109.7-109.7c61.2,0,109.7,49.1,109.6,110.1C235.8,194.6,186.9,242.8,126.2,243.2z"/>
			<path class="st1" d="M105.4,129.4c-15.5-12.2-31-24.3-46.4-36.7c-2.7-2.2-4.7-2.8-7.7-0.8c-1.3,0.8-1.9,1.5-1.9,3.1
				c0.1,12.7,0,25.5,0,38.2c0,12.1,0.1,24.1-0.1,36.2c-0.1,3.3,0.8,5.2,4,6.2c1.4,0.5,2.3,0.9,3.6-0.2
				c16.2-12.8,32.4-25.6,48.6-38.3C107.1,135.7,107.1,130.7,105.4,129.4z M97,134.3c-13.1,10.3-26.3,20.6-39.3,30.9
				c-0.2,0.2-0.5,0.3-0.8,0.6v-65.2c5.7,4.5,11.2,8.8,16.6,13.1c7.8,6.1,15.6,12.2,23.3,18.4C97.7,132.7,98.5,133.1,97,134.3
				L97,134.3z"/>
			<path class="st1" d="M178.8,129.4c-16.3-12.8-32.6-25.6-48.8-38.4c-1-0.8-1.9-1.1-3-0.3c-0.7,0.5-1.4,0.9-2.2,1.1
				c-1.8,0.5-2.1,1.6-2.1,3.4c0.1,24.7,0.1,49.5-0.1,74.2c0,3.3,0.8,5.2,4,6.2c1.4,0.5,2.3,0.9,3.6-0.2c15.8-12.5,31.6-25,47.5-37.4
				c1.6-1.3,2.6-2.4,2.1-4.6C179.5,132,180.3,130.6,178.8,129.4z M170.4,134.1c-13.4,10.5-26.8,21.1-40.4,31.7v-65.2l30,23.6
				c3.4,2.7,6.8,5.4,10.2,8C171,132.8,171.5,133.2,170.4,134.1z"/>
			<path class="st1" d="M203.1,133.4v-28.2c0-5,0-5-5-5.1c-1.9-0.1-2.3,0.5-2.3,2.3c0.1,19.5,0,38.9,0,58.4c0,5.3,0,5.2,5.3,5.3
				c1.7,0,2.1-0.4,2.1-2.1C203,153.9,203.1,143.7,203.1,133.4z"/>
		</g>
	</g>
</g>
</svg>
