<?xml version="1.0" encoding="utf-8"?>
<!-- Generator: Adobe Illustrator 25.4.1, SVG Export Plug-In . SVG Version: 6.00 Build 0)  -->
<svg version="1.1" id="Capa_1" xmlns="http://www.w3.org/2000/svg" xmlns:xlink="http://www.w3.org/1999/xlink" x="0px" y="0px"
	 viewBox="0 0 252.6 266.4" style="enable-background:new 0 0 252.6 266.4;" xml:space="preserve">
<g id="Capa_2_00000077309881961657416480000003061690643693983625_">
	<g id="music_note">
		<path id="trace" d="M80.5,266.4c-3.3-1.3-6.8-1.4-10.1-2.5c-23.9-8.3-38.1-24.7-41.4-49.7c-4.2-32.2,19.1-61.8,51.3-65.8
			c11.8-1.5,23.9,0.7,34.4,6.3c2.5,1.3,2.5,1.3,2.5-1.6c0-40.6,0-81.2,0-121.7c0-9.7,3.1-18,10.6-24.4c5.1-4.5,11.7-7,18.5-7
			c10.3,0,20.6-0.1,30.9,0C192.5,0.2,205,12.5,206,28.3c0.9,14.8-10.3,28.5-25,30.6c-7.1,1-14.2,0.3-21.3,0.5
			c-3.6,0.1-7.1,0.1-10.7,0c-1.8-0.1-2.3,0.5-2.1,2.2c0,0.5,0,1,0,1.6c0,47,0.2,94-0.1,141c-0.1,23.2-9.7,41.6-29.4,54.3
			c-6.8,4.3-14.4,6.9-22.4,7.7c-0.4,0-0.9,0-1.1,0.5h-9.4c-1-0.4-2.1-0.4-3.1,0L80.5,266.4z"/>
	</g>
</g>
</svg>
