<?xml version="1.0" encoding="UTF-8"?>
<svg id="Layer_2" data-name="Layer 2" xmlns="http://www.w3.org/2000/svg" viewBox="0 0 341.08 340.21">
  <g id="Layer_1-2" data-name="Layer 1">
    <g id="_7hqrk4.tif" data-name="7hqrk4.tif">
      <g>
        <path d="M152.32,340.21c-4.75-.86-9.49-1.72-14.24-2.56-17.66-3.12-34.28-9.21-49.91-17.91-34.46-19.16-59.49-46.96-75.07-83.14-6.4-14.86-10.99-30.35-12.05-46.55-.79-12.02-1.61-24.2-.53-36.14,2.89-31.92,14.17-60.91,33.63-86.51C52.47,43.29,75.55,25.12,103.45,13.24c15.1-6.43,30.75-11.18,47.19-12.26,11.91-.78,23.95-1.47,35.8-.55,23.38,1.82,45.38,8.9,66,20.19,17.18,9.4,32.26,21.48,45.25,36.05,19.74,22.14,32.79,47.79,39.3,76.75,3.97,17.64,5.04,35.53,3.23,53.45-3.3,32.72-14.92,62.38-35.29,88.23-25.26,32.04-57.97,52.7-97.86,61.71-5.57,1.26-11.3,1.83-16.95,2.76-.62,.1-1.2,.42-1.8,.64h-36.01ZM31.62,170.11c.1,76.85,62.07,137.68,136.45,138.76,78.52,1.14,140.65-62.32,140.95-137.93,.3-77.1-62.04-138.55-136.96-139.37C93.9,30.7,31.62,94.12,31.62,170.11Z"/>
        <path d="M148.75,234.04V106.5h-42.27v127.54h42.27Zm43.18-127.67v127.65h42.18V106.36h-42.18Z"/>
        <path d="M148.75,234.04h-42.27V106.5h42.27v127.54Z"/>
        <path d="M191.93,106.36h42.18v127.65h-42.18V106.36Z"/>
      </g>
    </g>
  </g>
</svg>