<?xml version="1.0" encoding="utf-8"?>
<!-- Generator: Adobe Illustrator 25.4.1, SVG Export Plug-In . SVG Version: 6.00 Build 0)  -->
<svg version="1.1" id="Capa_1" xmlns="http://www.w3.org/2000/svg" xmlns:xlink="http://www.w3.org/1999/xlink" x="0px" y="0px"
	 viewBox="0 0 252.6 266.4" style="enable-background:new 0 0 252.6 266.4;" xml:space="preserve">
<g id="music_note">
	<g>
		<path d="M251.5,114.6c-1.5-10.6-4.5-21-8.7-30.9c-6.4-15.2-15.6-28.4-27-40.1c-6.5-6.5-13.7-12.3-21.4-17.2
			c-16.3-10.3-33.8-17.1-53.2-18.8c-1.9-0.2-3.8,0.2-5.6-0.4h-19.7c-2.6,0.5-5.4,0.3-8,0.6C95,9.7,82.4,13.5,70.7,19.3
			C54.6,27.2,40.4,38.4,29,52.2C13.8,70.5,4.4,91.3,1,114.9c-0.4,2.6-0.2,5.4-0.6,8v20.7c0.5,2.6,0.3,5.4,0.6,8
			c1.8,12.9,5.6,25.5,11.4,37.2c7.8,15.9,18.8,29.9,32.3,41.3c18.5,15.5,39.6,25,63.5,28.5c2.6,0.4,5.2,0.1,7.8,0.6h19.7
			c3-0.5,6-0.2,9-0.6c12.9-1.7,25.3-5.5,37-11.3c16.2-8,30.3-18.8,41.8-32.8c15.2-18.3,24.7-39.1,28.1-62.6c0.4-2.7,0.2-5.5,0.7-8.2
			v-20.2C251.7,120.5,252,117.5,251.5,114.6z M126.2,237.5C68.1,237,22,190.8,22.1,133.1C22.1,75,68.7,28.9,126.4,29
			c58,0.1,104.2,46.5,104.1,104.3C230.4,191.4,183.9,237.2,126.2,237.5z"/>
		<path d="M115,133.4c0-14.4,0-28.8,0-43.2c0-1.5-0.2-2.2-1.9-2.1c-8.1,0.1-16.2,0.1-24.3,0c-1.4,0-1.8,0.4-1.8,1.8
			c0,28.9,0,57.8,0,86.7c0,1.6,0.5,1.9,2,1.9c7.9-0.1,15.9-0.1,23.8,0c1.9,0,2.3-0.5,2.3-2.3C114.9,161.9,115,147.6,115,133.4z"/>
		<path d="M165.6,133.5c0-14.4,0-28.8,0-43.3c0-1.7-0.3-2.2-2.1-2.2c-7.9,0.1-15.9,0.1-23.8,0c-1.8,0-2.1,0.6-2.1,2.2
			c0,28.7,0,57.3,0,86c0,2,0.7,2.2,2.4,2.2c7.8-0.1,15.6-0.1,23.3,0c2,0,2.4-0.6,2.4-2.5C165.6,161.8,165.6,147.6,165.6,133.5z"/>
	</g>
</g>
</svg>
