<?xml version="1.0" encoding="utf-8"?>
<!-- Generator: Adobe Illustrator 25.4.1, SVG Export Plug-In . SVG Version: 6.00 Build 0)  -->
<svg version="1.1" id="Capa_1" xmlns="http://www.w3.org/2000/svg" xmlns:xlink="http://www.w3.org/1999/xlink" x="0px" y="0px"
	 viewBox="0 0 252.6 266.4" style="enable-background:new 0 0 252.6 266.4;" xml:space="preserve">
<style type="text/css">
	.st0{stroke:#000000;stroke-width:15;stroke-miterlimit:10;}
	.st1{stroke:#000000;stroke-width:9;stroke-miterlimit:10;}
</style>
<g id="Capa_2_00000039124586821519256290000001232550767944328112_">
	<g id="music_note">
		<g>
			<path class="st0" d="M242.6,116.2c-1.7-12-5.3-23.7-10.6-34.5C224.6,66.4,214,53,200.8,42.2c-15.7-12.9-33.5-21-53.5-24.8
				c-4.3-0.8-8.6-0.7-12.9-1.2h-17.4c-2.6,0.5-5.3,0.2-7.9,0.6c-11.9,1.7-23.5,5.2-34.3,10.5c-15.1,7.3-28.5,17.8-39.1,30.8
				c-13.2,15.9-21.4,34-25.3,54.2c-0.7,3.9-0.6,7.8-1.2,11.7v18.3c0.5,2.7,0.3,5.4,0.6,8.1c1,7.3,2.8,14.5,5.2,21.5
				c5.7,16.5,15.1,31.6,27.4,44c6.6,6.7,13.9,12.5,21.9,17.4c12.6,7.7,26.6,13,41.1,15.7c3.8,0.7,7.7,0.6,11.5,1.1h17.4
				c3-0.5,6-0.2,9-0.6c7.9-1.1,15.7-3.1,23.2-5.9c16-5.7,30-14.8,42.1-26.6c6.7-6.5,12.5-13.9,17.4-21.9
				c7.8-12.7,13.1-26.7,15.8-41.3c0.7-3.8,0.6-7.7,1.1-11.5v-17.8C242.8,121.8,243,118.9,242.6,116.2z M126.2,242.8
				C65.1,242.3,16.6,193.7,16.7,133c0.1-61,49-109.4,109.6-109.4c61.1,0,109.6,49,109.5,109.7C235.7,194.4,186.9,242.5,126.2,242.8z
				"/>
			<path class="st1" d="M159.7,128.8c-15.7-12.1-31.3-24.4-46.8-36.8c-2-1.6-3.7-2.1-5.7-0.5c-0.2,0.2-0.5,0.3-0.8,0.4
				c-1.8,0.4-2.1,1.6-2.1,3.4c0.1,24.5,0.1,49-0.1,73.5c0,3.5,0.8,5.6,4.2,6.7c1.4,0.5,2.2,0.6,3.4-0.4
				c15.8-12.5,31.6-24.9,47.5-37.3c1.6-1.3,2.6-2.5,2-4.3C161.5,131.6,161.4,130.2,159.7,128.8z M151.4,134.6
				c-12.5,9.8-25,19.6-37.5,29.4c-0.6,0.5-1.3,1-2.2,1.7v-65.1c3.6,2.8,7.1,5.5,10.5,8.2c9.7,7.7,19.5,15.3,29.2,22.9
				C153,133,152.9,133.5,151.4,134.6z"/>
		</g>
	</g>
</g>
</svg>
