<?xml version="1.0" encoding="UTF-8"?>
<svg id="Layer_2" data-name="Layer 2" xmlns="http://www.w3.org/2000/svg" viewBox="0 0 256.89 257">
  <defs>
    <style>
      .cls-1 {
        fill: #010101;
      }
    </style>
  </defs>
  <g id="Layer_1-2" data-name="Layer 1">
    <g>
      <path class="cls-1" d="M256.24,110.04c-1.74-13.65-6.02-26.55-12.11-38.8-6.97-14.02-16.23-26.38-27.81-37.02-11.25-10.34-23.83-18.45-37.84-24.54C157.95,.76,136.4-1.15,114.45,.58c-15.82,1.25-30.79,6.08-44.85,13.38-13.43,6.97-25.32,16.03-35.65,27.19-13.58,14.68-23.16,31.56-29,50.62C2,101.39,.19,111.22,.1,121.31c-.08,8.59-.42,17.21,.76,25.74,2.24,16.23,7.54,31.46,15.7,45.67,7.38,12.85,16.63,24.21,27.92,33.82,9.84,8.38,20.58,15.4,32.54,20.44,10.74,4.53,21.79,7.96,33.41,9.38,2.88,.35,5.8,.15,8.66,.63h18.04c1.02-.54,2.12-.21,3.18-.24,3.25-.08,6.5-.24,9.7-.8,30.28-5.34,55.72-19.49,75.95-42.61,15.74-17.98,25.62-38.9,29.8-62.48,.71-4.02,.53-8.1,1.13-12.12v-19.54c-.48-3.04-.26-6.12-.64-9.16Zm-127.6,125.44c-58.96,.01-106.81-47.84-106.79-106.78,.02-58.91,47.94-106.78,106.85-106.74,58.9,.04,106.73,47.99,106.66,106.92-.07,58.84-47.87,106.59-106.72,106.6Z"/>
      <path class="cls-1" d="M169.73,122.76c-7.69-5.58-15.38-11.16-23.06-16.75-9.37-6.81-18.73-13.64-28.11-20.44-3.89-2.82-8.01-2.29-10.19,1.23-.98,1.58-.92,3.34-.92,5.08,0,12.36,0,24.71,0,37.07,0,6.6,0,13.19,0,19.79,0,6.34-.11,12.69,.09,19.03,.16,5.15,5.23,7.77,9.7,5.22,.86-.49,1.68-1.08,2.48-1.67,16.66-12.09,33.32-24.19,49.97-36.29,5.32-3.87,5.33-8.44,.04-12.27Z"/>
    </g>
  </g>
</svg>