<?xml version="1.0" encoding="utf-8"?>
<!-- Generator: Adobe Illustrator 25.4.1, SVG Export Plug-In . SVG Version: 6.00 Build 0)  -->
<svg version="1.1" id="Capa_1" xmlns="http://www.w3.org/2000/svg" xmlns:xlink="http://www.w3.org/1999/xlink" x="0px" y="0px"
	 viewBox="0 0 252.6 266.4" style="enable-background:new 0 0 252.6 266.4;" xml:space="preserve">
<style type="text/css">
	.st0{stroke:#1D1D1B;stroke-width:15;stroke-miterlimit:10;}
	.st1{stroke:#1D1D1B;stroke-width:9;stroke-miterlimit:10;}
</style>
<g id="Capa_2_00000110434278828147484860000002539870020708524448_">
	<g id="music_note">
		<g>
			<path class="st0" d="M242.6,112.4c-1.7-12-5.3-23.7-10.6-34.5c-7.4-15.2-18.1-28.7-31.2-39.4c-15.7-12.9-33.5-21-53.5-24.8
				c-4.3-0.8-8.6-0.7-12.9-1.2h-17.4c-2.6,0.5-5.3,0.2-7.9,0.6c-11.9,1.7-23.5,5.2-34.3,10.5c-15.1,7.3-28.5,17.8-39.1,30.8
				c-13.2,15.9-21.4,34-25.3,54.2c-0.7,3.9-0.6,7.8-1.2,11.7v18.3c0.5,2.7,0.3,5.4,0.6,8.1c1,7.3,2.8,14.5,5.2,21.5
				c5.7,16.5,15.1,31.6,27.4,44c6.6,6.7,13.9,12.5,21.9,17.4c12.6,7.7,26.6,13,41.1,15.7c3.8,0.7,7.7,0.6,11.5,1.1h17.4
				c3-0.5,6-0.2,9-0.6c7.9-1.1,15.7-3.1,23.2-5.9c16-5.7,30-14.8,42.1-26.6c6.7-6.5,12.5-13.9,17.4-21.9
				c7.8-12.7,13.1-26.7,15.8-41.3c0.7-3.8,0.6-7.7,1.1-11.5v-17.8C242.8,118,243,115.2,242.6,112.4z M126.1,239
				C65,238.8,16.7,190,16.7,129.4c0.1-61.1,49-109.6,109.7-109.5c61,0.1,109.1,48.9,109.5,109.6C235.4,190.6,186.9,239.1,126.1,239
				L126.1,239z"/>
			<path class="st1" d="M164.4,89.2c-25.4,0.1-50.9,0.1-76.3,0c-1.7,0-2.1,0.4-2.1,2.1c0.1,25.4,0.1,50.9,0,76.3
				c0,1.7,0.4,2.1,2.1,2.1c12.7-0.1,25.4,0,38.1,0s25.4,0,38.1,0c1.7,0,2.1-0.4,2.1-2.1c-0.1-25.4-0.1-50.9,0-76.3
				C166.5,89.6,166.1,89.2,164.4,89.2z M159.2,160.3c0,1.7-0.4,2.1-2.1,2.1c-10.3-0.1-20.6,0-30.8,0s-20.6,0-30.8,0
				c-1.7,0-2.1-0.4-2.1-2.1c0.1-20.6,0.1-41.1,0-61.7c0-1.7,0.4-2.1,2.1-2.1c20.6,0.1,41.1,0.1,61.7,0c1.7,0,2.1,0.4,2.1,2.1
				C159.1,119.2,159.1,139.7,159.2,160.3z"/>
		</g>
	</g>
</g>
</svg>
