<?xml version="1.0" encoding="UTF-8"?>
<svg id="Layer_2" data-name="Layer 2" xmlns="http://www.w3.org/2000/svg" viewBox="0 0 204.29 204.26">
  <g id="Layer_1-2" data-name="Layer 1">
    <path id="IA7BuV.tif" d="M102.47,0C46.28-.15,.42,45.2,0,101.31c-.42,56.6,45.33,102.82,101.89,102.94,56.32,.12,102.03-45.1,102.39-101.31C204.65,46.14,159.17,.15,102.47,0Zm-.54,188.22c-47.68-.1-86.24-39.06-85.89-86.77,.35-47.3,39.01-85.53,86.37-85.4,47.79,.13,86.13,38.89,85.82,86.78-.31,47.38-38.83,85.5-86.31,85.4ZM63.93,102.13c0-9.13,.06-18.26-.02-27.39-.07-7.3,3.53-11.02,10.68-11.06,18.5-.1,37.01-.22,55.51,0,6.5,.08,10.29,3.63,10.27,10.61-.05,18.56-.05,37.11,0,55.67,.02,6.97-3.75,10.54-10.26,10.62-18.5,.21-37.01,.1-55.51,0-7.15-.04-10.76-3.75-10.69-11.05,.08-9.13,.02-18.26,.02-27.39Z"/>
  </g>
</svg>