<?xml version="1.0" encoding="utf-8"?>
<!-- Generator: Adobe Illustrator 25.4.1, SVG Export Plug-In . SVG Version: 6.00 Build 0)  -->
<svg version="1.1" id="Capa_1" xmlns="http://www.w3.org/2000/svg" xmlns:xlink="http://www.w3.org/1999/xlink" x="0px" y="0px"
	 viewBox="0 0 252.6 266.4" style="enable-background:new 0 0 252.6 266.4;" xml:space="preserve">
<g id="Capa_2_00000088827981189032160810000002788321351146088106_">
	<g id="music_note">
		<g>
			<path d="M-112,42.7c1.9-2.3,3.4-5,6.5-6.1c6.5-2.2,13,2.4,13,9.5c0.1,15.3,0,30.6,0,45.9c0,39.1,0,78.2,0,117.3
				c0,7.4-5,11.9-11.7,10.8c-3.9-0.6-5.8-3.7-7.9-6.5V42.7z"/>
			<path d="M363.7,213.7c-2,2.7-3.8,5.6-7.4,6.4c-6.4,1.4-12.1-3-12.1-9.8c-0.1-14.9-0.1-29.7-0.1-44.5c0-39.6,0-79.1,0-118.7
				c0-7.4,5-11.9,11.7-10.8c3.9,0.7,5.8,3.7,7.9,6.5L363.7,213.7z"/>
			<path d="M306,127.9c0-35.1,0-70.3,0-105.4c-0.1-2.2,0-4.3,0.5-6.4c1.1-4.1,5.8-7,10-6.8c4.6,0.3,8.5,3.8,9.1,8.4
				c0.2,1.8,0.4,3.7,0.3,5.6c0,70,0,139.9,0,209.9c0,2-0.1,4-0.4,6c-1.1,5.3-6.3,8.8-11.6,7.7c-4.1-0.8-7.3-4.2-7.8-8.4
				c-0.2-1.9-0.2-3.7-0.1-5.6L306,127.9z"/>
			<path d="M-54.2,128.2c0,35.1,0,70.3,0,105.4c0.1,2.3-0.1,4.6-0.6,6.9c-1.2,4.1-5.9,6.9-10.1,6.6c-4.6-0.4-8.3-4-9-8.6
				c-0.2-1.9-0.3-3.7-0.2-5.6c0-69.8,0-139.6,0-209.4c0-1.9,0-3.7,0.2-5.6c0.8-5.4,5.7-9.2,11.1-8.4c4.5,0.6,7.9,4.2,8.4,8.7
				c0.1,1.9,0.2,3.7,0.2,5.6C-54.2,58.5-54.2,93.4-54.2,128.2z"/>
			<path d="M115.8,128.2c0-26.3,0-52.7,0-79c0-2.3-0.1-4.6,0.9-6.8c1.8-4,4.8-6.3,9.4-6.2c4.6,0.1,7.4,2.5,9,6.6
				c0.6,1.9,0.9,3.9,0.8,5.9c0,53,0,105.9,0,158.9c0,0.9,0,1.9,0,2.8c-0.6,6.1-4.6,9.8-10.2,9.7c-5.5-0.1-9.5-4.1-9.7-10.2
				c-0.2-5.4,0-10.8,0-16.3L115.8,128.2z"/>
			<path d="M-16.3,128.5c0,26.8,0,53.6,0,80.3c0,4.8-1.5,8.5-6,10.6c-4.8,2.2-10.5,0.2-12.7-4.6c-0.4-0.9-0.7-1.9-0.8-2.9
				c-0.2-1.7-0.3-3.4-0.2-5.1c0-52.5,0-105,0-157.4c0-0.9,0-1.9,0-2.8c0.3-6.5,4-10.5,9.9-10.4s9.8,4.2,9.8,10.6
				c0.1,14.6,0,29.1,0,43.7L-16.3,128.5z"/>
			<path d="M268,128.2c0-27.1,0-54.2,0-81.3c0-4.3,1.6-7.6,5.3-9.6c3-1.8,6.8-1.7,9.7,0.2c2.6,1.4,4.4,4.1,4.6,7.1
				c0.1,1.9,0.2,3.7,0.2,5.6c0,52,0,104.1,0,156.1c0,1.5,0,3.1-0.1,4.6c-0.5,5.8-4.4,9.4-10,9.3c-5.3,0-9.6-4.4-9.6-9.7
				c0,0,0-0.1,0-0.1c-0.1-6.3,0-12.7,0-19C268,170.3,268,149.2,268,128.2z"/>
			<path d="M97.9,128.3c0,18.4,0,36.8,0,55.2c0,7.3-3.9,11.9-9.9,12.1c-6.1,0.1-10.3-4.8-10.3-12.2c0-36.8,0-73.6,0-110.4
				c0-7.3,3.9-11.9,10-12c6.3-0.1,10.2,4.5,10.2,12.1C97.9,91.5,97.9,109.9,97.9,128.3z"/>
			<path d="M153.8,128c0-18.4,0-36.8,0-55.2c0-7.3,3.9-11.8,10.1-11.8S174,65.6,174,72.8c0,37,0,73.9,0,110.9
				c0,7.1-4.2,11.9-10.2,11.9s-10.1-4.6-10.1-11.9C153.7,165.1,153.7,146.6,153.8,128z"/>
			<path d="M21.8,128.1c0,18.6,0,37.1,0,55.7c0,7.1-3.6,11.5-9.6,11.7S1.8,191.1,1.7,184c-0.1-14.2,0-28.5,0-42.7
				c0-22.7,0-45.5,0-68.2C1.7,65.3,6,60.6,12.5,61c5.6,0.3,9.3,4.4,9.3,10.5C21.8,90.4,21.8,109.3,21.8,128.1z"/>
			<path d="M229.9,128.1c0-18.6,0-37.1,0-55.7c0-7.1,3.8-11.4,9.8-11.5c5.8-0.1,10.2,4.2,10.2,10.8c0.1,37.7,0.1,75.5,0,113.2
				c0,5.9-3.5,9.6-8.6,10.4c-4.6,0.7-9.1-1.8-10.8-6.1c-0.6-1.6-0.8-3.3-0.6-5C229.9,165.5,229.9,146.8,229.9,128.1z"/>
			<path d="M59.9,128.2c0,11.2,0,22.3,0,33.4c0,7-3.8,11.4-9.9,11.5s-10.3-4.3-10.3-11.2c-0.1-22.4-0.1-44.8,0-67.3
				c0-6.9,4.2-11.3,10.2-11.2s10,4.4,10,11.4C59.9,105.9,59.9,117,59.9,128.2z"/>
			<path d="M191.8,127.7c0-11,0-22,0-32.9c0-7,3.9-11.3,9.9-11.4c6.1-0.1,10.2,4.3,10.2,11.2c0.1,22.4,0.1,44.8,0,67.2
				c0,6.9-4.2,11.2-10.3,11.2c-6-0.1-9.9-4.4-9.9-11.4C191.8,150.3,191.8,139,191.8,127.7z"/>
		</g>
	</g>
</g>
</svg>
